<svg xmlns="http://www.w3.org/2000/svg" width="620" height="480" viewBox="0 0 620 480">
  <g id="Grupo_5" data-name="Grupo 5" transform="translate(-330 -160)">
    <path id="Interseção_6" data-name="Interseção 6" d="M88.168-1206C217.394-1346.6,296.454-1327.19,357-1296c66,34,80,46,95-30s27-132,89-94,26-48,48-113c6.184-18.27,17.586-28.246,31-32.9V-1206Z" transform="translate(330 1846)" fill="#fedbe1"/>
    <path id="Interseção_5" data-name="Interseção 5" d="M126-1351.917v-133.064H433.388c-15.019,39.5-50.793,90.161-107.388,77-56.083-9.072-86.318,9.063-113.705,27.2-22.363,14.808-42.818,29.617-73.905,29.613A105.769,105.769,0,0,1,126-1351.917Z" transform="translate(204 1644.981)" fill="#fb5471"/>
  </g>
</svg>
