<svg xmlns="http://www.w3.org/2000/svg" xmlns:xlink="http://www.w3.org/1999/xlink" width="920" height="600" viewBox="0 0 920 600">
  <defs>
    <linearGradient id="linear-gradient" x1="-0.006" x2="0.2" y2="1.417" gradientUnits="objectBoundingBox">
      <stop offset="0" stop-color="#fd1789"/>
      <stop offset="1" stop-color="#ffbe1e"/>
    </linearGradient>
    <linearGradient id="linear-gradient-2" x1="0.5" x2="0.5" y2="1" gradientUnits="objectBoundingBox">
      <stop offset="0" stop-color="#ffbe1e"/>
      <stop offset="1" stop-color="#fd1789"/>
    </linearGradient>
    <linearGradient id="linear-gradient-4" x1="0.138" y1="0.138" x2="0.798" y2="0.883" gradientUnits="objectBoundingBox">
      <stop offset="0" stop-color="#5f29a4"/>
      <stop offset="1" stop-color="#e60175"/>
    </linearGradient>
    <linearGradient id="linear-gradient-5" x1="0.827" y1="0.187" x2="0.147" y2="0.8" xlink:href="#linear-gradient-4"/>
  </defs>
  <g id="Grupo_15" data-name="Grupo 15" transform="translate(-180 -100)">
    <path id="Interseção_7" data-name="Interseção 7" d="M-1243-1461.527v-112.806h635.012c-101.092,136.361-215.381,78.609-275.012,54-63-26-67-9-149,71-29.5,28.779-60.412,42.935-92.9,42.932C-1162.14-1406.4-1201.438-1425.01-1243-1461.527Z" transform="translate(1423 1674.333)" fill="url(#linear-gradient)"/>
    <path id="Interseção_8" data-name="Interseção 8" d="M-561.255-1074a141.181,141.181,0,0,1-.745-14.5A139.5,139.5,0,0,1-422.5-1228a140.49,140.49,0,0,1,22.5,1.805V-1074Z" transform="translate(1500 1774)" fill="url(#linear-gradient-2)"/>
    <path id="Interseção_9" data-name="Interseção 9" d="M-1227-1074v-319.892c100.045,10.423,168.583,70.466,164,175.892-3.09,71.048,40.77,60.032,88.895,49.016,29.77-6.814,61.173-13.629,84.1-1.016,35.651,19.608,51.53,62.515,59.177,96Z" transform="translate(1407 1774)" fill="url(#linear-gradient-2)"/>
    <circle id="Elipse_13" data-name="Elipse 13" cx="47" cy="47" r="47" transform="translate(249 408)" fill="url(#linear-gradient-4)"/>
    <circle id="Elipse_14" data-name="Elipse 14" cx="37.5" cy="37.5" r="37.5" transform="translate(959 528)" fill="url(#linear-gradient-5)"/>
  </g>
</svg>
