<?xml version="1.0" encoding="utf-8"?>
<!-- Generator: Adobe Illustrator 23.0.1, SVG Export Plug-In . SVG Version: 6.00 Build 0)  -->
<svg version="1.1" xmlns="http://www.w3.org/2000/svg" xmlns:xlink="http://www.w3.org/1999/xlink" x="0px" y="0px"
	 viewBox="0 0 1920 1080" style="enable-background:new 0 0 1920 1080;" xml:space="preserve">
<style type="text/css">
	.st0{fill:#D3D3D3;}
	.st1{fill:#5A5859;}
	.st2{fill:#DE0600;}
	.st3{fill:#E1DED6;}
</style>
<g id="Camada_2">
	<g>
		<g>
			<path class="st0" d="M534.2,446c-2.3,1.5-5.7,4.3-7.5,6.4l-19.7,22.8c-1.8,2.1-5.4,4.4-8,5.3l-66.3,20.5
				c-2.6,0.8-6.1,3.3-7.6,5.6L388,560.4c-1.6,2.3-4.1,2.3-5.7,0l-37.1-53.8c-1.6-2.3-5-4.8-7.6-5.6l-66.3-20.5
				c-2.6-0.8-6.2-3.2-8-5.3l-19.7-22.8c-1.8-2.1-5.2-5-7.5-6.4l-31.5-19.6c-2.3-1.5-3.8-0.4-3.3,2.3l9.8,50.2
				c0.5,2.7,2.4,6.6,4.2,8.7l32.2,37.9c1.8,2.1,4.4,5.7,5.8,8.1l51.3,83.9c1.4,2.3,4.2,2.7,6.2,0.8l20.3-19.3c2-1.9,4.4-1.3,5.4,1.2
				l46.7,121c1,2.6,2.6,2.6,3.6,0l46.7-121c1-2.6,3.4-3.1,5.4-1.2l20.3,19.3c2,1.9,4.8,1.5,6.2-0.8l51.3-83.9c1.4-2.3,4.1-6,5.8-8.1
				l32.2-37.9c1.8-2.1,3.7-6,4.2-8.7l9.8-50.2c0.5-2.7-1-3.7-3.3-2.3L534.2,446z"/>
		</g>
		<path class="st1" d="M418.1,432.8l-31.7-78.6c-0.1,0.1-0.2,1.8-0.2,4.4c-0.1-2.6-0.1-4.3-0.2-4.4l-31.7,78.6l-49.7-33.1l19.3,44.1
			h62.6h3.7h58.4l19.3-44.1L418.1,432.8z M386.2,432.1l0,0.7l-0.2-0.7l-16.4-17l16.5-33.2l16.5,33.2L386.2,432.1z"/>
		<polygon class="st1" points="385.8,459 383.6,459 323.8,459 323.8,472.8 383.6,472.8 385.8,472.8 448.4,472.8 448.4,459 		"/>
	</g>
</g>
<g id="Camada_3">
	<g>
		<path class="st2" d="M1118.1,888.5c-14.4,8-28.4,16.8-42.8,24.6c-11.8,6.4-24,12-36.2,17.7c-2.8,1.3-6.1,1.4-9.1,2.1
			c-0.3-0.6-0.5-1.2-0.8-1.8c2.9-2.1,5.6-4.3,8.6-6.2c6.5-4.1,13.1-7.9,19.5-12.1c1.8-1.2,2.9-3.2,5.3-6c-13.9-3-25.9,1-38.1,1.3
			c0,0.5,0,1,0,1.6c9.3,0,18.5,0,27.8,0c0.1,0.6,0.3,1.2,0.4,1.8c-13.1,8.7-27.1,16.1-37.2,28.6c1.9,0.6,3.4,0.7,4.7,0.2
			c15.3-5.5,31.1-10,45.7-17.1c17.3-8.4,33.5-19.2,50.2-28.8c2.9-1.7,6.1-2.9,9.2-4.3c0.3,0.4,0.6,0.7,0.8,1.1
			c-1,1.2-1.8,2.6-2.9,3.6c-16.8,16.2-34,31.9-54.5,43.6c-40.7,23.1-85.2,29.5-131,28.9c-22.6-0.3-45.2-2.6-67.8-4.5
			c-8.9-0.8-17.8-2.2-26.6-3.6c34.5-4.7,68.5-12.1,101.2-24.5c-0.1-0.5-0.2-0.9-0.3-1.4c-2.7,0.4-5.4,0.7-8.1,1.1
			c8.7-3.9,17.3-7.7,26-11.6c-2.5-0.2-4.7,0.5-6.9,1.1c-47.4,11.8-95.4,14.1-143.8,7.8c-12-1.6-24.1-4-34.6-10.6
			c-3.5-2.2-6.3-5.3-9.7-8.3c1.3-0.7,1.5-0.9,1.6-0.9c1.3,0.3,2.6,0.6,3.8,1c20,6.2,40.5,7.8,61.2,5.1c10.2-1.3,20.3-3.4,30.4-5.2
			c-4,1.3-8,2.8-12.2,3.7c-14.5,3-29.2,5-44,3.7c-8.7-0.7-17.3-1.7-25.1-2.5c31.9,10.1,104.4-0.3,117.7-17.3
			c-5.2,1.7-10.4,3.3-15.5,4.9c13.4-6.6,26.8-13.2,38.3-23.1c-1.8,0.5-3.3,1.4-4.9,2.1c-16.6,6.7-32.8,14.8-49.9,19.7
			c-33.2,9.6-66.6,10.6-99.1-3.6c-32.8-14.3-59.2-46-55.2-86.3c0.5-5,2.4-9.8,4-14.7c-2.7,9.4-3.4,19-2.5,29.2
			c-0.4-30.8,13.9-53.4,36.7-71.8c22.8-18.4,48.6-25.6,77.7-21.8c-14.5-3.9-28.9-2.7-43.4,0.2c1.2-0.6,2.3-1.5,3.5-1.7
			c6.4-1,12.8-2.3,19.2-2.5c9.7-0.3,19.4,0.5,28.2,4.9c2.7,1.3,4.6,4.3,6.8,6.5c-2.6,1.8-5,4.6-7.8,5.1c-6.8,1.2-13.9,1.6-20.8,1.7
			c-7.1,0-14.3-0.8-21.4-1.2c1.4,1.3,3,2.3,4.7,2.8c12.3,3.3,24.5,7.8,37,9.5c22.1,2.8,44.4,3.9,66.6,5.6c5.6,0.4,11.3,0.8,18.2,1.2
			c-10.8,8.4-22.1,11.3-33.7,12c-11.6,0.7-23.3,0.2-35,0.2c29,13.9,59.3,22.9,90.9,27.2c19,2.6,38.1,3.8,57.2,2.1
			c9.6-0.9,19.2-2,28.7-3c-6.8,1.2-13.5,2.7-20.4,3.6c-21.1,2.7-42.2,1.9-63.2-1c-8.9-1.2-17.7-2.7-26.6-4.1
			c0.6,0.6,1.2,0.8,1.8,0.9c32,7,64.2,9.6,96.8,5.3c36.2-4.8,70-16.3,99.1-39.3c23.9-19,40.4-42.7,45.6-73.3c0.3-1.5,0.5-3,0.6-4.5
			c0-0.7,0-1.3,0-2c-2.7,8.6-5.5,17.1-8.2,25.7c0.3-1.5,0.4-3,0.8-4.4c10.6-30.8,6.7-60.3-8.7-88.5c-15.7-28.8-39.2-50.2-65.8-68.5
			c-4-2.8-8.2-5.4-12.2-8c2.5,3,5.5,5.2,8.5,7.5c11.4,8.8,22.1,18.2,30,30.5c8.1,12.7,11.6,26.1,4.9,40.7c-0.1,0.3,0.2,0.9,0.3,1.4
			c2.3-0.8,4.5-1.5,6.7-2.2c5.6-6.4,4.7-14.3,5.3-21.9c6,26.4,4.5,51.1-16,71.9c2.1-0.6,3.7-1.4,5.2-2.3c4.9-2.8,9.7-5.7,14.5-8.5
			c-2.9,2.6-5.9,5.1-8.8,7.7c1.4,0.7,2.3,0.6,2.9,0.2c7.5-5.1,15.1-10.2,22.5-15.6c1.2-0.9,1.6-2.8,2.4-4.2c0.1,1.2,0.5,2.5,0.2,3.5
			c-9.1,25.5-26.5,42.2-52.7,49.5c-1.6,0.4-3.1,1.1-4.7,1.6c20.2,5.6,39.9,4.7,59.6-1.2c-12.7,7.4-26.8,10.7-41,13.1
			c-14.3,2.4-28.7,3.5-43.3,5.2c1.8,0.8,3.5,1.5,5.1,2.2c12.5,5.6,24.7,11.8,34.2,21.9c2.9,3.1,4.7,7.1,7,10.6
			c-0.4,0.2-0.8,0.5-1.2,0.7c-6.2-3.5-12.4-7.2-18.7-10.5c-6.2-3.2-12.6-6.2-19.1-8.7c-6.7-2.6-13.5-4.7-20.4-6.6
			c-6.7-1.8-13.5-3.1-20.3-4.6c17.3,11.2,25.7,27.4,29.4,48c-26.5-19.4-52.5-36.9-82.4-47.8c19.5,20.4,34.1,41.9,36.6,55.1
			c-33.6-18.3-61.4-44.9-96.4-62.8c9.8,16,23.3,28.1,28.3,45.5c-1.6-0.8-2.9-1.8-4-2.9c-9.7-9.4-19.2-19-29.2-28
			c-9.4-8.5-19-16.7-29-24.4c-5.1-3.9-11.2-6.4-16.8-9.6c7.9,9.8,13.9,20.1,18.5,31.5c-22.6-17.6-44.7-35.9-72.9-44.1
			c13.4,6.8,24.1,16.4,31.4,29.6c-11.8-8.4-25.4-12.5-39.2-15.5c-15.3-3.3-30.9-5.2-46.6-2.5c-1.9,0.3-3.6,1.3-5.4,2
			c18.4,2.5,37.6,7.5,42.6,11.9c-24.5-2.2-58.4,3.7-67,11.5c8-0.4,16.5-0.8,25-1.2c0.1,0.4,0.2,0.8,0.4,1.3
			c-22.1,7.7-39.3,22.5-55.5,38.8c6.7-3.7,13.5-7.3,20.2-11c-20.9,22-37,57.6-40.7,92.3c1.4-2.9,2.2-4.7,3.1-6.4
			c3.3-6.3,6.6-12.6,10-18.8c-1.8,4.5-3.6,9-5.5,13.5c0.4,0.2,0.8,0.3,1.2,0.5c1.9-5.5,7.9-9.2,6.5-16.2c0.7-0.5,1.4-0.9,2.6-1.8
			c-0.4,2.8-0.8,5-1,7.1c-3.1,24.1,1.3,47.2,10.6,69.3c25.3,60.7,69.1,103.4,128.7,130.1c11.7,5.2,24.2,8.8,36.3,13.1
			c0.2-0.5,0.4-1,0.6-1.5c-2.2-0.9-4.4-1.8-6.6-2.7c-32.6-13.3-61.8-31.9-86.6-57c-5.7-5.7-10.2-12.6-14.8-19.3
			c-1.1-1.6-0.5-4.4-0.6-6.6c2.2,0,4.7-0.7,6.5,0.1c10.6,4.7,21.3,9.3,31.4,14.9c21.2,11.8,41.6,25.1,63,36.4
			c30.5,16.2,63.6,24,97.8,26.8c9.2,0.7,18.5,1,27.7,1.5c-8.1-2.2-16.3-3.3-24.5-4.5c-25.4-3.7-49.8-9.9-72-23.7
			c-12.6-7.8-25.7-14.6-38.6-21.9c-1.7-0.9-3.4-1.8-5.7-3.1c1.3-0.2,1.7-0.3,2.2-0.3c17.5,2.1,34.9,5.3,52.4,6.2
			c18.7,0.9,37.6,0,56.3-0.9c10.4-0.5,20.7-2.9,31-4.4c-0.9,0.4-1.7,1.1-2.6,1.2c-12.5,1.9-24.9,4.8-37.5,5.2
			c-20.9,0.7-41.9,0-62.8-0.7c-9.5-0.3-19-2.2-28.5-3.4c1,0.9,2.1,1.2,3.2,1.4c32,5.2,64.2,7.3,96.6,4.2
			c45.6-4.3,87.4-19,124.1-46.9c1.8-1.4,3.5-3.1,5.2-4.6c-0.2-0.1-0.3-0.3-0.5-0.4c-7.2,4.4-14.4,8.8-21.6,13.2
			c1.4-1.3,2.7-2.8,4.3-4c4.8-3.5,9.8-6.8,14.6-10.4c16.7-12.7,32.9-26.1,47.1-41.6c0,0,0,0,0,0c0,0,0.1-0.1,0.1-0.1
			c0,0,0,0-0.1,0.1l-0.1,0.1c0.8-2.1,1.5-4.2,2.6-7C1128,883.3,1122.8,885.8,1118.1,888.5z M1118,765c4.4-4.4,8.9-8.9,13.3-13.3
			C1126.8,756.1,1122.4,760.6,1118,765c-3.4,3.5-7.1,6.7-11.1,9.5C1110.8,771.6,1114.5,768.5,1118,765z M834.8,958
			c14.2-3.1,28.3-5.4,42.3-8.1c10.6-2.1,21-4.6,31.6-7c-1.8,0.7-3.5,1.7-5.4,2.2c-10.2,2.4-20.3,4.9-30.6,7c-10,2-20.2,3.6-30.3,5.4
			c0.1,0.6,0.3,1.2,0.4,1.7C840.2,958.8,837.5,958.4,834.8,958z"/>
		<path class="st2" d="M707.8,301.9c-1.5,1.6-3,3.2-4.5,4.8c0.2,0.4,0.4,0.9,0.7,1.3c21.8-13.9,46.6-18.4,71.5-22.5
			c-0.2-0.7-0.3-1.3-0.5-2c-11.6,2-23.1,4.1-34.7,6.1c3.1-1,6.1-2.5,9.3-3c11-1.9,22.1-3.5,33.1-5.1c-53,29.6-75.1,94.7-69.9,139
			c0.9-2.9,1.5-5.3,2.5-7.6c1.6-3.9,3.4-7.7,5.1-11.6c-1.1,3.7-2.3,7.4-3.4,11c1.2-0.3,1.8-0.9,2.1-1.6c6.7-18.9,17.2-35.5,30-50.9
			c1.4-1.7,1.4-4.5,2.1-6.8c0.9-1.6,1.7-3.1,2.6-4.7c-7.2,24.9-7.5,50-4.8,75.3c2.7,25.3,8.3,50,15,75.1c1.3-10.2,2-20,3.8-29.5
			c1.8-9.5,4.8-18.8,7.2-28.2c-1.2,5.3-2.5,10.6-3.5,16c-1.8,10.1-3.5,20.3-5.2,30.4c1.2-0.1,1.3-0.4,1.4-0.7
			c2.6-17.1,4.8-34.4,12.3-50.3c0.4-0.8,0.2-1.9,0.3-2.9c-0.7,0.2-1.5,0.4-2.2,0.6c0.7-1.2,1.3-2.5,2.6-4.7
			c10.7,46.7,40.3,78.7,74.4,107.4c-3.1-4.8-6.8-9.2-10.2-13.8c-8.1-11.2-16-22.6-18.7-36.6c-0.7-3.6,0.1-7.5,0.2-11.3
			c0.5,0,1-0.1,1.6-0.1c19.2,23.4,40.7,44.4,64.9,62.6c24.3,18.4,50.2,33.6,80.5,41.7c-6.4-5.2-12.4-9.6-17.8-14.7
			c-5.6-5.2-10.8-10.9-15.8-16.6c-4.9-5.6-9.6-11.5-14.1-17.5c-4.5-5.9-8.6-12.1-12.9-18.2c2.4,0.9,4,2.3,5.7,3.6
			c29.3,21.9,62.7,32.6,98.7,37.1c12.5,1.6,25,4,37.1,7.4c15.8,4.5,29,13.9,40.5,25.9c-1.3-3.2-2.7-6.5-5.1-8.7
			c-5-4.8-10-10-15.9-13.6c-24.3-14.7-49-28.9-73.5-43.3c-4.3-2.5-8.6-4.7-13.8-7.6c30.2-3.8,59.4-7.6,89.3-11.4
			c-8.8,0-16.8-0.1-24.8,0c-44.1,0.5-87.9-2.2-130.9-13c-33.8-8.5-65.6-21.2-92.1-44.6c-25.5-22.6-39.9-50.6-38.7-85.1
			c0.4-10.4,3.8-20.7,5.9-31c1-3,2.1-5.9,3.3-8.8c-1.2,2.9-2.3,5.8-3.3,8.8c-0.3,1.8-0.6,3.6-1,5.4c-0.6,2.8-1.3,5.5-1.8,8.3
			c-0.5,2.9-1,5.9-1.3,8.9c-0.2,2.6,0,5.2,0,7.8c10.4-67,52.5-104.7,114.3-124.9c-3,0.4-6,0.7-9,1.1c6-1.8,12-3.7,18-5.5
			c-7.3-1.2-14.7-2-22.1-1.9c-40.2,0.4-78.9,8.5-116.2,23.3c-24.5,9.7-47.9,21.7-67.1,40.4c-6.2,6-11.3,13.1-16.9,19.7
			c0.3,0.2,0.6,0.3,0.9,0.5C697.8,308,702.8,304.9,707.8,301.9z"/>
		<path class="st2" d="M1033.8,338.8c0,0,0.1-0.1,0.1-0.1c0,0,0,0,0,0c0,0-0.1,0-0.1,0C1033.8,338.7,1033.8,338.7,1033.8,338.8
			C1033.8,338.8,1033.8,338.8,1033.8,338.8z"/>
		<path class="st2" d="M1241.3,720.5c-10.8-60.3-35.9-112.5-85.8-150.7c9.8,2.8,19.7,5.6,29.3,9.1c9.6,3.5,18.9,7.6,28.4,11.5
			c-30.5-35.4-126.6-72.4-189-70.1c2.3,0.7,3.7,1,5,1.5c14.9,5,30.4,8.8,44.6,15.4c55.9,25.8,91.2,67.7,96.9,130.6
			c3.4,37.3-6.4,71.6-28.5,102.1c-0.9,1.3-2.2,2.6-3.6,3.3c-11.7,6-23,13.1-35.3,17.5c-24.9,8.8-50.3,16.1-75.5,24.1
			c-2,0.6-4.4,2-5.3,3.8c-4.6,9.7-12.3,16-22,19.2c-14.2,4.7-28.7,8.3-43.1,12.2c-2.6,0.7-5.2,1-7.8,1.5c-2.5,0.5-5.1,1.1-7.6,1.6
			c22.3,1.5,44.4,0.9,66.3-2.9c10.8-1.9,21.5-4.1,32.2-6.2c-0.7,0.4-1.3,1.1-2,1.2c-17.5,3.1-34.9,6.3-52.4,9
			c-7.6,1.2-15.4,1.1-23,1.7c0,0.4,0,0.8,0,1.2c3,0,6.1,0.1,9.1,0c24.9-0.8,49.4-4.2,73.4-11.1c35.9-10.3,68.3-27.1,95.7-52.8
			c2.1-2,3.8-4.4,5.7-6.7c-0.4-0.3-0.8-0.7-1.1-1c-2.9,2.3-5.9,4.6-8.8,7c3.5-3.8,7-7.5,10.8-11.6c2,35.6-16.7,60.1-41,81.8
			c1.4-0.5,2.6-1.1,3.6-2c14.4-13.1,28.7-26.1,43-39.2c-2.6,3.2-4.9,6.6-7.7,9.6c-5,5.4-10.2,10.6-15.3,16c0.4,0.4,0.9,0.7,1.3,1.1
			c21.5-18.1,38.6-39.7,51.4-64.9c12.8-25.3,18.9-52.1,18-76.5c-0.9,7.1-1.7,18.2-3.8,29.1c-1.6,8.2-4.8,16.1-7.2,24.1
			c0.4-1.8,0.7-3.6,1.2-5.3c8-25.4,10-51.1,5.1-77.3c-1.2-6.6-2.7-13.2-4.3-20.9C1216.7,672.4,1229,696.5,1241.3,720.5z"/>
		<path class="st2" d="M1009.9,387.5c0.4-0.5,0.8-0.9,1.2-1.4c-10.2-10.2-20-20.9-30.6-30.6c-11-10.1-23.8-16.9-39.1-18.2
			c-0.9-0.1-2.4-0.3-2.7-0.9c-3.8-7.2-11.7-7.7-17.7-11.8c-0.7,8.3-1.1,8.7-8.5,8.4c-2.3-0.1-4.5,0-7.2,0c0.5,5.2,1,10,1.5,14.7
			c1.2,11.4-1.5,14.8-12.5,16.5c-0.3,0-0.5,0.4-0.9,0.8c0.8,3.1,2,6.3,2.4,9.6c1.1,9.5,2.7,19.1,2.4,28.6
			c-0.2,7.9-6.4,10.7-13.6,7.5c-2.4-1.1-4.8-2.5-6.8-4.2c-15.5-13.7-24.9-30.7-25.2-51.7c-0.1-6.7,1.9-13.5,2.8-19.6
			c-2,1.6-4.3,4-7.1,5.8c-8.4,5.7-15,2.4-15.8-7.7c-0.2-3,0-6.1,0-9.9c-3.2,2.4-5.4,4.5-8,5.8c-2.6,1.3-5.6,1.8-8.4,2.6
			c0.2-0.6,0.3-1.2,0.5-1.9c0.3,0.2,0.6,0.3,1,0.5c9.9-18.8,20.3-37.1,39.8-48.2c-1.8,0-3.5,0-5.3,0c5.7-2.6,9.7-0.5,10.3,6.6
			c0.6,6.8,0.1,13.8,0.1,20.2c2.8-3.9,5.8-8.1,8.8-12.4c-1.2,2.6-2.4,5.2-3.5,7.8c9.9-11.4,19.4-22.9,29.6-33.7
			c10.3-10.7,23.4-17.7,37.6-24.2c-1.6-0.9-1.7-1.1-1.9-1.1c-1.9,0.4-3.9,0.9-5.8,1.3c0.9-0.6,1.9-1.2,2.8-1.8
			c1.2-0.9,2.3-1.9,3.5-2.9c-1.3-1.3-2.4-3.2-4-3.8c-1.5-0.6-3.6-0.2-5.2,0.4c-13,5-26.3,9.6-38.9,15.5
			c-26.3,12.3-50.8,27.2-69.5,50.2c-20.3,25-24.4,52.1-10.7,81.6c10.2,21.9,26.4,39,44.1,54.9c2,1.8,4.2,3.5,6.9,5.8
			c-0.4-1.2-0.4-1.5-0.5-1.7c-1.3-1.6-2.5-3.1-3.8-4.6c-10.4-12.6-19.9-25.8-25.9-41.3c-3.4-9-5.6-18.2-3.2-28.1
			c11.9,44.9,44.1,70.7,82.9,90.5c-1.8-6.4-4.7-12.2-6.5-18.3c-1.8-6-2.4-12.3-3.5-18.5c0.5-0.1,0.9-0.2,1.4-0.3
			c6.9,14.3,11.8,29.8,23.4,41.4c-0.5-1.9-1.4-3.6-2.5-5.2c-10.6-16.4-13.2-33.8-7.2-52.4c0.5-1.7,1.8-3.1,2.8-4.6
			c0,0.2,0,0.3,0,0.5c0.1-0.2,0.1-0.4,0.2-0.7c1.4,1.2,2.8,2.5,4.5,4c1.6-2.2,2.9-4.1,4.9-7c18.5,25.1,16.4,51.4,8.3,78.5
			c8.3-10,11.4-22.1,12.6-34.4c1.8-17.3,0.8-34.3-11-49c3.7-2.8,4.4-5.7,1.2-8.7c2.9-1.1,5.6-2.2,8.5-3.2
			c25.2,24.7,36.4,53.5,23.5,88.8c16.4-22.9,17.3-68.9-14-100c1.2-1.9,2.4-3.8,3.8-6.1c-5-2.5-9.6-4.8-14-7
			c-1.8,1.7-3.3,3.3-5.1,4.6c-0.9,0.7-2.5,1-3.5,0.7c-0.5-0.1-1.1-2.1-0.9-3c2.2-10.7-2.3-10.8,10.6-9.5c1.7,0.2,3.3,0.4,4.9,0.7
			c22.5,4.8,41,16.8,57.9,31.7C1007.4,385.4,1008.7,386.4,1009.9,387.5z M818.7,321.9c0.1-0.4,0.6-0.7,1-1.1c-0.9,2.5-1.8,5-2.7,7.5
			C817.6,326.1,818.1,324,818.7,321.9z"/>
		<path class="st2" d="M946.1,673.5c-1.2-2.1-1.6-2.9-2-3.6c-8.8-13.7-21.5-22.5-37.2-25.7c-12-2.4-24.4-2.9-36.6-4.2
			c-5.6-0.6-11.2-1.3-16.9-2c0-0.5,0-1,0.1-1.6c2.7-1.5,5.4-3.1,8.1-4.6c-1.4,1.9-2.7,3.8-4,5.6c4,0.1,6-2.7,7.9-6.6
			c1.3-2.9,3.1-6,5.6-7.8c11.8-8.8,25.1-14.3,39.5-17.3c2.1-0.4,4.2-1,6.3-1.5c-0.2-0.7-0.4-1.4-0.5-2c-8.6,2.1-17.2,4.3-25.9,6.4
			c2.7-1.2,5.2-2.8,8-3.6c12.9-3.9,26.2-5.2,39.6-3.4c-26.5-8.8-53.6-5-76.6,10.4c-1,0.6-2.3,1.2-3.4,1c-2.7-0.3-5.4-1.1-8.4-1.8
			c-0.2-0.6-0.6-1.8-1-2.9c7-2.2,7.6-4.6,2.9-13.7c3.1-2.3,6.2-4.6,9.4-6.9c-2.5,2.7-5.1,5.5-7.6,8.2c0.4,0.6,0.8,1.1,1.2,1.7
			c17.4-15.7,35.9-28.8,60.7-28.1c-5.6-0.4-11.1-1-16.4-0.2c-6,0.9-11.8,3.1-17.7,4.8c16.7-9.4,33.7-9.4,51.2-1.5
			c-1.6-2.1-3.3-3.9-5.3-5.1c-6.9-4.3-14.5-5.6-22.5-5.7c-24-0.1-44.5,7-58.6,27.9c-0.7,1-2.3,1.5-3.6,2.2
			c-3.7,1.9-7.4,3.7-11.1,5.5c1.9,3.6,3.8,7.6,2.8,8.6c-4.4,4.1-9.5,7.3-15.1,11.3c-2.4-12.6-1.8-23.9,0.2-35
			c1.1-6.1,3.2-12.1,4.8-18.1l0,0c-0.3,1.6-0.4,3.3-0.8,4.9c-2.8,12.4-4.9,24.8-4.2,34.9c1.2-7.9,2.9-18.2,4.4-28.5
			c0.5-3.7,0.5-7.5,0.7-11.3c0.1-0.9,0.2-1.8,0.3-2.6c0.2,0,0.4,0.1,0.6,0.1c1.3,7.2,2.6,14.5,3.9,21.7c0.9-1.3,0.9-2.4,1-3.6
			c1.5-10.8,2.9-21.6,4.4-32.4c0,0,0,0,0,0c0,0,0,0,0-0.1c0,0-0.1,0.1-0.1,0.1c2.1-4.5,0.8-7.3-3.4-10.1c-4.1-2.7-7.6-6.5-10.9-10.2
			c-12.1-13.8-20.2-30.1-28.8-46c-0.8-1.4-1.7-2.8-2.5-4.2c-0.6,0.1-1.3,0.2-1.9,0.4c-1.2,15.8-2.3,31.6-3.5,47.8
			c-7.7-10.8-8.6-23.6-10.2-36.2c-2.5,14.4-2.8,28.9,0.3,43.1c3.1,14.4,7.7,28.5,11.6,42.8c0.7,2.6,1.2,5.2,2.1,9
			c-11.8-8-17.6-19.1-24-29.7c3.7,20.9,11.1,40.3,22.6,58.1c10.8,16.6,24,30.6,43.9,38.9c-10.2,2.4-18.8,0.8-27.4-1.6
			c13.3,11.8,29,13.6,45.7,10.9c2.8,6.2,7.3,7.9,16.3,5.9c-2.2,0.9-4.3,1.9-6.5,2.8c6.2,1.8,10,0,10.9-6c0.8-5,3.6-6.8,8.2-6.8
			c12.4,0,24.7,0,36.4,0c-14.4-4.1-29.6-3.4-43.3-1.1c-2,4.3-3.4,7.4-4.8,10.4c0.8-3.7,1.6-7.4,2.5-11.2
			C890.6,649.8,921,649.2,946.1,673.5z"/>
		<path class="st2" d="M1162.5,689.1c0,0.8,0,1.6,0,2.4c0.2-0.7,0.4-1.4,0.7-2.1C1162.9,689.3,1162.7,689.2,1162.5,689.1z"/>
		<path class="st2" d="M828.4,222.9c7.5-2,15-4,22.6-5.8c7.4-1.8,14.9-3.5,22.4-4.8c7.7-1.3,15.5-2.5,23.2-3
			c7.6-0.5,15.2-0.1,22.8-0.1c-3.7-1-7.4-2.1-11.1-1.9c-13.4,0.8-26.8,2.1-40.2,3.2c0.7-0.4,1.4-1.1,2.1-1.2
			c13.9-1.1,27.8-2.6,41.7-3c7-0.2,12.7,2.8,17.1,9.2c3.1,4.5,8.4,7.8,13.3,10.8c3.1,1.9,7,1.2,9.4-2c2.3-3.1,1.6-6.5-0.5-9.3
			c-1.6-2.1-3.6-4-5.8-5.3c-11.9-7.3-25.1-10.5-38.8-11.7c-28.5-2.5-55.1,4.5-80.4,17.1c-6.2,3.1-12.1,6.6-18.2,9.9
			c0.2,0.4,0.4,0.7,0.5,1.1c1.7-0.6,3.4-1.3,5.1-1.8c9.7-2.8,19.4-5.6,29.1-8.4c-4.9,1.9-9.9,3.9-14.8,5.8
			C828.1,222.1,828.2,222.5,828.4,222.9z"/>
		<path class="st2" d="M915.4,768.4c-32.1-1.7-64.3-2-95.9-8.8C837.8,765.6,909.9,772,915.4,768.4z"/>
		<path class="st2" d="M1119.2,894.2c-16.8,10.1-33.6,20.1-50.3,30.2c0.2,0.4,0.4,0.8,0.6,1.3c16.9-9.9,33.8-19.8,50.7-29.8
			C1119.9,895.3,1119.5,894.7,1119.2,894.2z"/>
		<path class="st2" d="M992,515.7c17.3-2.1,34.7-4.2,52-6.2c0-0.6-0.1-1.2-0.1-1.8c-17.4,2-34.7,4-52.1,6
			C991.8,514.3,991.9,515,992,515.7z"/>
		<path class="st2" d="M1105.6,919.5c10-4.8,28.7-23.9,28.9-28.8c-0.8,0.2-1.5,0.4-2.3,0.5c-3.8,5-7.4,10.2-11.6,14.8
			C1116,910.8,1110.6,915,1105.6,919.5z"/>
		<path class="st2" d="M990.4,551.2c18,2.9,36.1,5.8,54.1,8.8c0.1-0.3,0.1-0.7,0.2-1c-18-2.9-36.1-5.8-54.1-8.7
			C990.6,550.6,990.5,550.9,990.4,551.2z"/>
		<path class="st2" d="M1047.9,362c0-0.6,0-1.1,0.1-1.7c-11.1,0-22.3,0-32,0C1025.6,362.4,1036.7,364.1,1047.9,362z"/>
		<path class="st2" d="M1132.8,712.2c-10.1,0-21.2,0-32.4,0C1111.7,714.9,1122.9,715.8,1132.8,712.2z"/>
		<path class="st2" d="M967.2,65.6c-4.8,6.6-8.2,22.1-7.3,30.3C961.9,87.2,964.6,76.2,967.2,65.6z"/>
		<path class="st2" d="M934.9,362.7c1.8-7.6,2.7-8.4,9.4-7.9c4.1,0.3,8.1,1.1,12.2,1.7c0-0.3,0.1-0.6,0.1-0.9
			c-7.1-1.1-14.2-2.1-21.7-3.2C934.9,356.4,934.9,359,934.9,362.7z"/>
		<path class="st2" d="M942,468.7c1.8-9.1,3.6-18.2,5.4-27.3c-0.3-0.1-0.6-0.1-0.8-0.2c-2,9.1-4,18.1-6,27.2
			C941.1,468.5,941.6,468.6,942,468.7z"/>
		<path class="st2" d="M1101.6,318c-0.2,0.3-0.5,0.6-0.7,0.9c0.6-0.2,1.1-0.4,1.7-0.6C1102.2,318.2,1101.9,318.1,1101.6,318z"/>
		<path class="st2" d="M913.6,409.7c0.4-1.9,0.2-3.9,0.1-5.9c-1.8,7.7-3.6,15.3-5.3,23C910.9,421.3,912.4,415.6,913.6,409.7z"/>
		<path class="st2" d="M834.1,551.5c-0.8,6.3-1.6,12.6-2.5,18.9c0.2,0,0.4,0,0.6,0.1c1.5-7.9,2.9-15.8,4.4-24
			c-1.1,0.4-1.8,0.6-2.5,0.8C834.2,548.7,834.2,550.1,834.1,551.5z"/>
		<path class="st2" d="M846.5,662.5c-6.8,0-13.9,0-22.2,0C834.2,665.1,843.8,664.8,846.5,662.5z"/>
		<path class="st2" d="M1033.9,937.5c-3.8,1.3-7.7,2.6-11.5,3.8c0.2,0.6,0.4,1.3,0.7,1.9c3.8-1.3,7.7-2.6,11.5-3.9
			C1034.4,938.7,1034.1,938.1,1033.9,937.5z"/>
		<path class="st2" d="M1118.8,625.7c-0.2,0.9-0.3,1.8-0.5,2.8c5.3-1.5,7.3-5.4,6.5-10C1123.1,620.4,1120.9,623,1118.8,625.7
			C1118.7,625.7,1118.7,625.7,1118.8,625.7c-0.1,0.1-0.1,0.1-0.1,0.2C1118.6,625.8,1118.8,625.6,1118.8,625.7z"/>
		<path class="st2" d="M929.6,1026.1c0,0.3-0.1,0.7-0.1,1c7.2,1,14.4,2.1,21.6,3.1c0-0.2-0.1-0.4-0.1-0.5
			C943.8,1028.5,936.7,1027.3,929.6,1026.1z"/>
		<path class="st2" d="M881.6,469.4c0.4-0.4,0.8-0.9,1.1-1.3c-4.1-3.5-8.2-7.1-12.3-10.6c-0.4,0.4-0.8,0.9-1.2,1.3
			C873.3,462.3,877.4,465.9,881.6,469.4z"/>
		<path class="st2" d="M1030,346.6c1.9-1.9,3.9-3.9,5.7-5.9c0,0-1.2-1.3-1.9-1.9c-1.8,2.1-3.6,4.3-5.4,6.4
			C1028.9,345.6,1029.5,346.1,1030,346.6z"/>
		<path class="st2" d="M954.3,224.7c-3.1,1.5-6,3-8.7,4.3C950.9,230.6,952.9,229.7,954.3,224.7z"/>
		<path class="st2" d="M977.5,456.4c0.8-5.3,1.7-10.6,2.5-15.9c-0.3-0.1-0.5-0.2-0.8-0.3c-0.9,5.4-1.8,10.7-2.8,16.1
			C976.9,456.3,977.2,456.3,977.5,456.4z"/>
		<path class="st2" d="M975.2,253.7c0.3,0,0.6-1.2,0.9-1.9c-3.8,0.2-7.7,0.5-11.5,0.7C968.1,253.3,971.7,253.6,975.2,253.7z"/>
		<path class="st2" d="M1055.2,919.3c2.3-2,4.5-3.9,6.8-5.9c-0.5-0.5-0.9-1-1.4-1.5c-2.2,2-4.4,4-6.5,5.9
			C1054.5,918.3,1054.8,918.8,1055.2,919.3z"/>
		<path class="st2" d="M1099.7,380.9c-2.9-4.2-6.7-7.9-10.8-11c-8-6.2-13.8-13.9-17.4-23.3c-7.4-19.3-18.8-35.9-34.2-49.7
			c-5.3-4.8-5.5-10.5-0.7-16.2c-0.8,3.3-1.5,6.7-2.3,10c2.3-3.1,4.2-6.1,5.7-9.3c0.5-1,0.2-2.4,0.3-3.6c1.8,3.9,3.6,7.8,5.4,11.6
			c-0.1,0.1,0.2-0.4,0.6-0.7c2-1.7,3.9-4.1,6.2-4.6c1.1-0.2,3.7,3,4.4,5c1.5,4.1,2.2,8.4,3,11.8c3.3-0.6,8.6-2.3,9.1-1.4
			c1.8,3.5,2.2,7.7,3.2,12.2c12.4-2.1,14.2,8.1,16.7,17.9c1.6-1.8,2.7-3.2,3.9-4.6c0,1.1,0,2.2,0,4c3-3.8,5.5-7.1,8.1-10.3
			c-1,0.4-2.1,0.7-3.1,1.1c2.8-3.9,5.3-4,7.1,0.1c1.3,3,2,6.3,2.7,9.6c2.4,11.4,4.4,22.8,7.2,34.1c1,4.1,3.7,7.8,5.6,11.7
			c0-7.7-1.4-14.9-2.2-22.1c-1.1-9-0.9-17.9,3.7-26.1c-1.1,6.5-2.3,12.9-3.4,19.4c0.5,0.2,0.9,0.3,1.4,0.5
			c0.2-12.5,5.6-22.1,14.9-29.9c1.6-1.3,2.1-4.1,3.2-6.4c-2.2,1.8-3.9,3.1-5.6,4.4c5.4-8,4.4-12.2-4.5-17.8
			c-1.8-1.2-3.7-2.3-5.7-3.1c-11.4-4.4-20.4-11.9-27.4-21.6c-6.9-9.5-13.2-19.5-19.6-29.4c-8.6-13.5-11.5-28.3-8.4-43.8
			c1.4-7.1,4.6-13.9,6.9-20.8c-5.7,16-6.4,19.8-5.3,27.8c1.7-19.7,11.9-35.1,21.4-50.7c-0.5-0.2-1-0.5-1.5-0.7
			c-2.8,3.7-5.5,7.4-8.3,11.1c4.4-7.7,8.7-15.4,13.1-23c-11.6,8.2-21.5,18-28.3,30.3c-6.7,12.1-12.1,24.8-18.1,37.2
			c-19.1-19.1-24.2-46.5-14.2-79.3c-7.8,11.5-11.7,23.1-13.8,35.4c-2.1,12.3-1.9,24.6,0.4,36.9c-16.2-15.1-26.8-32.7-24.1-55.7
			c0.6-5,3.1-9.7,5.1-14.6c-3.1,8.1-4.9,16.4-3.7,25.3c0.2-23.3,14.4-39.3,29.8-54.7c-0.5-0.4-1.1-0.8-1.6-1.1
			c-5.2,5.1-10.4,10.2-15.6,15.2c6.5-6.8,12.9-13.6,19.5-20.4c1-1.1,2.4-1.8,3.6-2.7c1-0.8,1.9-1.7,3.6-3.2
			c-28.1,6.9-61.8,49.4-55.6,84.6c-14.7-20-20.4-43.1-21.9-67.3c-1.5-24.8,4.3-47.7,21-67c-19.7,16.2-28.3,38.4-33.1,62.3
			c-4.8,24.3-2.9,48.2,6,71.8c-39.7-35-76.9-71.8-102.5-119.4c0.3,1.6,0.4,2.7,0.7,3.8c3.3,14.1,10.2,26.7,17.8,38.8
			c16.7,26.5,37.5,49.7,58.5,72.7c1.2,1.4,2.4,2.7,4.2,4.8c-66.3-15.3-117.7,17-134.3,49.2c5.2-3,10.8-6.1,16.4-9.3
			c-2.5,2.2-5.1,4.3-7.6,6.5c0.2,0.4,0.4,0.7,0.6,1.1c37.6-22.1,76.2-40.8,121.8-32.9c-1.1-0.6-2.2-1-3.3-1.2
			c-17-3.6-34-2.8-50.8,1.3c-6.1,1.5-12.2,3-18.3,4.6c15.2-6.4,31.1-9.2,47.5-9.4c18.2-0.2,35.3,3.8,50.4,14.4
			c8.2,5.7,15,12.7,17.8,22.7c2.5,8.8-2.5,14.8-11.5,13.3c-5.5-0.9-11-2.7-16-5.1c-6.3-3-12.2-6.9-18.3-10.4
			c6.1,7.2,12.8,13.9,19.9,20c6.9,5.9,15.2,8.7,24.3,9.2c2.4,0.1,4.7,0.5,7,0.8c0,0,0,0,0,0c0.1,0,0.1,0,0.2,0c0,0-0.1-0.2-0.1-0.2
			c10,3.4,17.3,9.8,21.8,19.3c0.9,1.9,0.9,5.3-0.3,6.8c-0.9,1.3-4.2,1.2-6.4,1c-1.9-0.1-3.9-0.9-5.6-1.9c-6.4-3.8-12.7-7.9-19-11.9
			c-1.5-1-3-2-5.7-3.9c3.7,9.2,9.3,14.8,16,19.3c8.5,5.8,17.3,11.2,25.8,17c1.7,1.2,3.2,3.6,3.4,5.6c0.6,4.4,0.7,9,0.5,13.4
			c-0.2,4.3-0.5,9.4-5.4,10.9c-4.7,1.5-8.3-2.1-10.9-5.5c-5.2-7.1-10.2-14.4-14.7-21.9c-3.9-6.5-7-13.4-10.4-20.1
			c-1.7,17.9,2.2,34,14.3,47.8c-0.3,0.4-0.7,0.8-1,1.3c-15.6-7.2-31.3-14.3-46.2-21.2c-0.2-0.4,0,0.1,0.3,0.5
			c25.8,28.5,57,47.1,95.7,51.7c8.8,1,20.2-0.4,24.7-3.1c-1.3-0.4-2.4-0.6-3.5-1c-5.8-1.9-11.8-3.5-17.4-6c-6.1-2.7-6.1-5.7-0.7-9.8
			c0.7-0.6,1.7-0.9,2.5-1.3c1.7-2.4,1.3-4.2-0.8-6.7c-6.3-7.4-8.7-16.2-7.2-26.4c0.9,0.5,1.5,0.8,1.9,1.2
			c15.4,12.3,28.6,26.4,37,44.5c4.2,9,9.6,17.6,18,22.9c10.4,6.6,17.5,16.2,25.4,25.1c11.9,13.4,24.2,26.5,36.4,39.7
			c1.1,1.1,2.5,1.9,3.8,2.9C1130.7,422.6,1114.6,402.3,1099.7,380.9z M1030.9,246.4c0,0,2.6-6.5-3.9-19.4c0,0,27.1,14.2,31,36.2
			C1058,263.2,1043.8,245.1,1030.9,246.4z"/>
	</g>
</g>
<g id="Camada_5">
	<g>
		<polygon class="st3" points="1510,501.6 1639,593.5 1510,680.8 1510,725.5 1703.7,594.3 1510,456.5 		"/>
		<polygon class="st3" points="1537,399.6 1407.9,491.4 1537,578.8 1537,623.5 1343.3,492.3 1537,354.5 		"/>
	</g>
</g>
</svg>
