<svg xmlns="http://www.w3.org/2000/svg" xmlns:xlink="http://www.w3.org/1999/xlink" width="726" height="656" viewBox="0 0 726 656">
  <defs>
    <clipPath id="clip-path">
      <rect width="105" height="102" fill="none"/>
    </clipPath>
  </defs>
  <g id="Grupo_23" data-name="Grupo 23" transform="translate(-277 -72)">
    <path id="Interseção_21" data-name="Interseção 21" d="M-2441.019-203V-468.6a37.007,37.007,0,0,1,39.163,8.488L-2227.2-285.455a37,37,0,0,1,0,52.326L-2257.329-203Z" transform="translate(2718.019 931)" fill="#ff3f6e"/>
    <path id="Interseção_20" data-name="Interseção 20" d="M-1932.791-117.245l-297.692-297.692a69,69,0,0,1,0-97.581l64.941-64.941H-1929v463.735Q-1930.945-115.4-1932.791-117.245Z" transform="translate(2932 649.459)" fill="#ff3f6e"/>
    <g id="Repetição_de_grade_1" data-name="Repetição de grade 1" transform="translate(307 590)" clip-path="url(#clip-path)">
      <g transform="translate(-296 -573)">
        <rect id="Retângulo_61" data-name="Retângulo 61" width="4" height="4" transform="translate(296 573)" fill="#fff"/>
      </g>
      <g transform="translate(-278 -573)">
        <rect id="Retângulo_61-2" data-name="Retângulo 61" width="4" height="4" transform="translate(296 573)" fill="#fff"/>
      </g>
      <g transform="translate(-260 -573)">
        <rect id="Retângulo_61-3" data-name="Retângulo 61" width="4" height="4" transform="translate(296 573)" fill="#fff"/>
      </g>
      <g transform="translate(-242 -573)">
        <rect id="Retângulo_61-4" data-name="Retângulo 61" width="4" height="4" transform="translate(296 573)" fill="#fff"/>
      </g>
      <g transform="translate(-224 -573)">
        <rect id="Retângulo_61-5" data-name="Retângulo 61" width="4" height="4" transform="translate(296 573)" fill="#fff"/>
      </g>
      <g transform="translate(-206 -573)">
        <rect id="Retângulo_61-6" data-name="Retângulo 61" width="4" height="4" transform="translate(296 573)" fill="#fff"/>
      </g>
      <g transform="translate(-296 -555)">
        <rect id="Retângulo_61-7" data-name="Retângulo 61" width="4" height="4" transform="translate(296 573)" fill="#fff"/>
      </g>
      <g transform="translate(-278 -555)">
        <rect id="Retângulo_61-8" data-name="Retângulo 61" width="4" height="4" transform="translate(296 573)" fill="#fff"/>
      </g>
      <g transform="translate(-260 -555)">
        <rect id="Retângulo_61-9" data-name="Retângulo 61" width="4" height="4" transform="translate(296 573)" fill="#fff"/>
      </g>
      <g transform="translate(-242 -555)">
        <rect id="Retângulo_61-10" data-name="Retângulo 61" width="4" height="4" transform="translate(296 573)" fill="#fff"/>
      </g>
      <g transform="translate(-224 -555)">
        <rect id="Retângulo_61-11" data-name="Retângulo 61" width="4" height="4" transform="translate(296 573)" fill="#fff"/>
      </g>
      <g transform="translate(-206 -555)">
        <rect id="Retângulo_61-12" data-name="Retângulo 61" width="4" height="4" transform="translate(296 573)" fill="#fff"/>
      </g>
      <g transform="translate(-296 -537)">
        <rect id="Retângulo_61-13" data-name="Retângulo 61" width="4" height="4" transform="translate(296 573)" fill="#fff"/>
      </g>
      <g transform="translate(-278 -537)">
        <rect id="Retângulo_61-14" data-name="Retângulo 61" width="4" height="4" transform="translate(296 573)" fill="#fff"/>
      </g>
      <g transform="translate(-260 -537)">
        <rect id="Retângulo_61-15" data-name="Retângulo 61" width="4" height="4" transform="translate(296 573)" fill="#fff"/>
      </g>
      <g transform="translate(-242 -537)">
        <rect id="Retângulo_61-16" data-name="Retângulo 61" width="4" height="4" transform="translate(296 573)" fill="#fff"/>
      </g>
      <g transform="translate(-224 -537)">
        <rect id="Retângulo_61-17" data-name="Retângulo 61" width="4" height="4" transform="translate(296 573)" fill="#fff"/>
      </g>
      <g transform="translate(-206 -537)">
        <rect id="Retângulo_61-18" data-name="Retângulo 61" width="4" height="4" transform="translate(296 573)" fill="#fff"/>
      </g>
      <g transform="translate(-296 -519)">
        <rect id="Retângulo_61-19" data-name="Retângulo 61" width="4" height="4" transform="translate(296 573)" fill="#fff"/>
      </g>
      <g transform="translate(-278 -519)">
        <rect id="Retângulo_61-20" data-name="Retângulo 61" width="4" height="4" transform="translate(296 573)" fill="#fff"/>
      </g>
      <g transform="translate(-260 -519)">
        <rect id="Retângulo_61-21" data-name="Retângulo 61" width="4" height="4" transform="translate(296 573)" fill="#fff"/>
      </g>
      <g transform="translate(-242 -519)">
        <rect id="Retângulo_61-22" data-name="Retângulo 61" width="4" height="4" transform="translate(296 573)" fill="#fff"/>
      </g>
      <g transform="translate(-224 -519)">
        <rect id="Retângulo_61-23" data-name="Retângulo 61" width="4" height="4" transform="translate(296 573)" fill="#fff"/>
      </g>
      <g transform="translate(-206 -519)">
        <rect id="Retângulo_61-24" data-name="Retângulo 61" width="4" height="4" transform="translate(296 573)" fill="#fff"/>
      </g>
      <g transform="translate(-296 -501)">
        <rect id="Retângulo_61-25" data-name="Retângulo 61" width="4" height="4" transform="translate(296 573)" fill="#fff"/>
      </g>
      <g transform="translate(-278 -501)">
        <rect id="Retângulo_61-26" data-name="Retângulo 61" width="4" height="4" transform="translate(296 573)" fill="#fff"/>
      </g>
      <g transform="translate(-260 -501)">
        <rect id="Retângulo_61-27" data-name="Retângulo 61" width="4" height="4" transform="translate(296 573)" fill="#fff"/>
      </g>
      <g transform="translate(-242 -501)">
        <rect id="Retângulo_61-28" data-name="Retângulo 61" width="4" height="4" transform="translate(296 573)" fill="#fff"/>
      </g>
      <g transform="translate(-224 -501)">
        <rect id="Retângulo_61-29" data-name="Retângulo 61" width="4" height="4" transform="translate(296 573)" fill="#fff"/>
      </g>
      <g transform="translate(-206 -501)">
        <rect id="Retângulo_61-30" data-name="Retângulo 61" width="4" height="4" transform="translate(296 573)" fill="#fff"/>
      </g>
      <g transform="translate(-296 -483)">
        <rect id="Retângulo_61-31" data-name="Retângulo 61" width="4" height="4" transform="translate(296 573)" fill="#fff"/>
      </g>
      <g transform="translate(-278 -483)">
        <rect id="Retângulo_61-32" data-name="Retângulo 61" width="4" height="4" transform="translate(296 573)" fill="#fff"/>
      </g>
      <g transform="translate(-260 -483)">
        <rect id="Retângulo_61-33" data-name="Retângulo 61" width="4" height="4" transform="translate(296 573)" fill="#fff"/>
      </g>
      <g transform="translate(-242 -483)">
        <rect id="Retângulo_61-34" data-name="Retângulo 61" width="4" height="4" transform="translate(296 573)" fill="#fff"/>
      </g>
      <g transform="translate(-224 -483)">
        <rect id="Retângulo_61-35" data-name="Retângulo 61" width="4" height="4" transform="translate(296 573)" fill="#fff"/>
      </g>
      <g transform="translate(-206 -483)">
        <rect id="Retângulo_61-36" data-name="Retângulo 61" width="4" height="4" transform="translate(296 573)" fill="#fff"/>
      </g>
    </g>
    <g id="Repetição_de_grade_2" data-name="Repetição de grade 2" transform="translate(880 174)" clip-path="url(#clip-path)">
      <g transform="translate(-296 -573)">
        <rect id="Retângulo_61-37" data-name="Retângulo 61" width="4" height="4" transform="translate(296 573)" fill="#fff"/>
      </g>
      <g transform="translate(-278 -573)">
        <rect id="Retângulo_61-38" data-name="Retângulo 61" width="4" height="4" transform="translate(296 573)" fill="#fff"/>
      </g>
      <g transform="translate(-260 -573)">
        <rect id="Retângulo_61-39" data-name="Retângulo 61" width="4" height="4" transform="translate(296 573)" fill="#fff"/>
      </g>
      <g transform="translate(-242 -573)">
        <rect id="Retângulo_61-40" data-name="Retângulo 61" width="4" height="4" transform="translate(296 573)" fill="#fff"/>
      </g>
      <g transform="translate(-224 -573)">
        <rect id="Retângulo_61-41" data-name="Retângulo 61" width="4" height="4" transform="translate(296 573)" fill="#fff"/>
      </g>
      <g transform="translate(-206 -573)">
        <rect id="Retângulo_61-42" data-name="Retângulo 61" width="4" height="4" transform="translate(296 573)" fill="#fff"/>
      </g>
      <g transform="translate(-296 -555)">
        <rect id="Retângulo_61-43" data-name="Retângulo 61" width="4" height="4" transform="translate(296 573)" fill="#fff"/>
      </g>
      <g transform="translate(-278 -555)">
        <rect id="Retângulo_61-44" data-name="Retângulo 61" width="4" height="4" transform="translate(296 573)" fill="#fff"/>
      </g>
      <g transform="translate(-260 -555)">
        <rect id="Retângulo_61-45" data-name="Retângulo 61" width="4" height="4" transform="translate(296 573)" fill="#fff"/>
      </g>
      <g transform="translate(-242 -555)">
        <rect id="Retângulo_61-46" data-name="Retângulo 61" width="4" height="4" transform="translate(296 573)" fill="#fff"/>
      </g>
      <g transform="translate(-224 -555)">
        <rect id="Retângulo_61-47" data-name="Retângulo 61" width="4" height="4" transform="translate(296 573)" fill="#fff"/>
      </g>
      <g transform="translate(-206 -555)">
        <rect id="Retângulo_61-48" data-name="Retângulo 61" width="4" height="4" transform="translate(296 573)" fill="#fff"/>
      </g>
      <g transform="translate(-296 -537)">
        <rect id="Retângulo_61-49" data-name="Retângulo 61" width="4" height="4" transform="translate(296 573)" fill="#fff"/>
      </g>
      <g transform="translate(-278 -537)">
        <rect id="Retângulo_61-50" data-name="Retângulo 61" width="4" height="4" transform="translate(296 573)" fill="#fff"/>
      </g>
      <g transform="translate(-260 -537)">
        <rect id="Retângulo_61-51" data-name="Retângulo 61" width="4" height="4" transform="translate(296 573)" fill="#fff"/>
      </g>
      <g transform="translate(-242 -537)">
        <rect id="Retângulo_61-52" data-name="Retângulo 61" width="4" height="4" transform="translate(296 573)" fill="#fff"/>
      </g>
      <g transform="translate(-224 -537)">
        <rect id="Retângulo_61-53" data-name="Retângulo 61" width="4" height="4" transform="translate(296 573)" fill="#fff"/>
      </g>
      <g transform="translate(-206 -537)">
        <rect id="Retângulo_61-54" data-name="Retângulo 61" width="4" height="4" transform="translate(296 573)" fill="#fff"/>
      </g>
      <g transform="translate(-296 -519)">
        <rect id="Retângulo_61-55" data-name="Retângulo 61" width="4" height="4" transform="translate(296 573)" fill="#fff"/>
      </g>
      <g transform="translate(-278 -519)">
        <rect id="Retângulo_61-56" data-name="Retângulo 61" width="4" height="4" transform="translate(296 573)" fill="#fff"/>
      </g>
      <g transform="translate(-260 -519)">
        <rect id="Retângulo_61-57" data-name="Retângulo 61" width="4" height="4" transform="translate(296 573)" fill="#fff"/>
      </g>
      <g transform="translate(-242 -519)">
        <rect id="Retângulo_61-58" data-name="Retângulo 61" width="4" height="4" transform="translate(296 573)" fill="#fff"/>
      </g>
      <g transform="translate(-224 -519)">
        <rect id="Retângulo_61-59" data-name="Retângulo 61" width="4" height="4" transform="translate(296 573)" fill="#fff"/>
      </g>
      <g transform="translate(-206 -519)">
        <rect id="Retângulo_61-60" data-name="Retângulo 61" width="4" height="4" transform="translate(296 573)" fill="#fff"/>
      </g>
      <g transform="translate(-296 -501)">
        <rect id="Retângulo_61-61" data-name="Retângulo 61" width="4" height="4" transform="translate(296 573)" fill="#fff"/>
      </g>
      <g transform="translate(-278 -501)">
        <rect id="Retângulo_61-62" data-name="Retângulo 61" width="4" height="4" transform="translate(296 573)" fill="#fff"/>
      </g>
      <g transform="translate(-260 -501)">
        <rect id="Retângulo_61-63" data-name="Retângulo 61" width="4" height="4" transform="translate(296 573)" fill="#fff"/>
      </g>
      <g transform="translate(-242 -501)">
        <rect id="Retângulo_61-64" data-name="Retângulo 61" width="4" height="4" transform="translate(296 573)" fill="#fff"/>
      </g>
      <g transform="translate(-224 -501)">
        <rect id="Retângulo_61-65" data-name="Retângulo 61" width="4" height="4" transform="translate(296 573)" fill="#fff"/>
      </g>
      <g transform="translate(-206 -501)">
        <rect id="Retângulo_61-66" data-name="Retângulo 61" width="4" height="4" transform="translate(296 573)" fill="#fff"/>
      </g>
      <g transform="translate(-296 -483)">
        <rect id="Retângulo_61-67" data-name="Retângulo 61" width="4" height="4" transform="translate(296 573)" fill="#fff"/>
      </g>
      <g transform="translate(-278 -483)">
        <rect id="Retângulo_61-68" data-name="Retângulo 61" width="4" height="4" transform="translate(296 573)" fill="#fff"/>
      </g>
      <g transform="translate(-260 -483)">
        <rect id="Retângulo_61-69" data-name="Retângulo 61" width="4" height="4" transform="translate(296 573)" fill="#fff"/>
      </g>
      <g transform="translate(-242 -483)">
        <rect id="Retângulo_61-70" data-name="Retângulo 61" width="4" height="4" transform="translate(296 573)" fill="#fff"/>
      </g>
      <g transform="translate(-224 -483)">
        <rect id="Retângulo_61-71" data-name="Retângulo 61" width="4" height="4" transform="translate(296 573)" fill="#fff"/>
      </g>
      <g transform="translate(-206 -483)">
        <rect id="Retângulo_61-72" data-name="Retângulo 61" width="4" height="4" transform="translate(296 573)" fill="#fff"/>
      </g>
    </g>
    <g id="Grupo_21" data-name="Grupo 21">
      <g id="Elipse_24" data-name="Elipse 24" transform="translate(805 118)" fill="none" stroke="#fff" stroke-width="3">
        <circle cx="9" cy="9" r="9" stroke="none"/>
        <circle cx="9" cy="9" r="7.5" fill="none"/>
      </g>
      <g id="Elipse_25" data-name="Elipse 25" transform="translate(925 138)" fill="none" stroke="#fff" stroke-width="2">
        <circle cx="5" cy="5" r="5" stroke="none"/>
        <circle cx="5" cy="5" r="4" fill="none"/>
      </g>
      <g id="Elipse_26" data-name="Elipse 26" transform="translate(935 388)" fill="none" stroke="#fff" stroke-width="2">
        <circle cx="7" cy="7" r="7" stroke="none"/>
        <circle cx="7" cy="7" r="6" fill="none"/>
      </g>
      <g id="Retângulo_73" data-name="Retângulo 73" transform="translate(973.686 303.867) rotate(45)" fill="none" stroke="#fff" stroke-width="3">
        <rect width="16" height="16" stroke="none"/>
        <rect x="1.5" y="1.5" width="13" height="13" fill="none"/>
      </g>
      <g id="Retângulo_74" data-name="Retângulo 74" transform="translate(751 151.686) rotate(45)" fill="none" stroke="#fff" stroke-width="3">
        <rect width="10" height="10" stroke="none"/>
        <rect x="1.5" y="1.5" width="7" height="7" fill="none"/>
      </g>
      <g id="Retângulo_79" data-name="Retângulo 79" transform="translate(456.529 657.608) rotate(45)" fill="none" stroke="#fff" stroke-width="3">
        <rect width="10" height="10" stroke="none"/>
        <rect x="1.5" y="1.5" width="7" height="7" fill="none"/>
      </g>
      <path id="União_1" data-name="União 1" d="M-2647-839v-8h-8v-4h8v-8h4v8h8v4h-8v8Z" transform="translate(3618 1285)" fill="#fff"/>
      <path id="União_2" data-name="União 2" d="M-2647-839v-8h-8v-4h8v-8h4v8h8v4h-8v8Z" transform="translate(2955 1371)" fill="#fff"/>
    </g>
  </g>
</svg>
