<svg xmlns="http://www.w3.org/2000/svg" width="1279" height="799" viewBox="0 0 1279 799">
  <g id="Grupo_4" data-name="Grupo 4" transform="translate(-0.5 -0.5)" opacity="0.06">
    <path id="Interseção_1" data-name="Interseção 1" d="M92.5,445.1V65.5H645.738C617.2,129.069,554.557,210.819,427,173c-199-59-59,52-56,128,2.456,62.2-37.279,147.844-211.316,147.841A646.571,646.571,0,0,1,92.5,445.1Z" transform="translate(-92 -65)"/>
    <path id="Caminho_2" data-name="Caminho 2" d="M490,478c14-105,167-241,343-201s224,161,104,318S795,321,715,463s-40-69-87-22S476,583,490,478Z" transform="translate(228 -223)"/>
    <path id="Caminho_3" data-name="Caminho 3" d="M133,6C277-87,363-18.328,363,67S239.828,309,154.5,309,138,239.828,138,154.5-11,99,133,6Z" transform="translate(69 438.492)"/>
    <path id="Interseção_2" data-name="Interseção 2" d="M766.27,799.5C835.949,635.347,865.192,604.489,925,640c64,38,128,164,177,0,40.148-134.371,116.554-192.883,177.5-181.038V799.5Z"/>
  </g>
</svg>
