<?xml version="1.0" encoding="utf-8"?>
<!-- Generator: Adobe Illustrator 16.0.0, SVG Export Plug-In . SVG Version: 6.00 Build 0)  -->
<!DOCTYPE svg PUBLIC "-//W3C//DTD SVG 1.1//EN" "http://www.w3.org/Graphics/SVG/1.1/DTD/svg11.dtd">
<svg version="1.1" xmlns="http://www.w3.org/2000/svg" xmlns:xlink="http://www.w3.org/1999/xlink" x="0px" y="0px"
	 width="932.953px" height="905.955px" viewBox="0 0 932.953 905.955" enable-background="new 0 0 932.953 905.955"
	 xml:space="preserve">
<g id="Layer_1">
	<g>
		<g>
			<defs>
				<path id="SVGID_1_" d="M238.643,546.898c-0.004,0.459-0.016,0.916-0.016,1.371c0,91.037,73.795,164.834,164.833,164.834
					c90.209,0,163.48-72.471,164.801-162.363l-50.476,45.297l-64.993-36.801l-47.766,42.283l-109.628-81.438L238.643,546.898z"/>
			</defs>
			<clipPath id="SVGID_2_">
				<use xlink:href="#SVGID_1_"  overflow="visible"/>
			</clipPath>
			
				<radialGradient id="SVGID_3_" cx="159.3794" cy="706.3667" r="2.3401" gradientTransform="matrix(43.0163 70.3722 70.3722 -43.0163 -56181.1992 19680.0605)" gradientUnits="userSpaceOnUse">
				<stop  offset="0" style="stop-color:#22C2E6"/>
				<stop  offset="1" style="stop-color:#1F1953"/>
			</radialGradient>
			<polygon clip-path="url(#SVGID_2_)" fill="url(#SVGID_3_)" points="478.596,373.395 654.156,660.601 328.29,859.789 
				152.732,572.585 			"/>
		</g>
		<g>
			<defs>
				<path id="SVGID_4_" d="M238.643,546.898l56.754-26.816l109.628,81.438l47.766-42.283l64.993,36.801l50.476-45.297
					c0.014-0.824,0.031-1.643,0.031-2.471c0-91.033-73.795-164.832-164.832-164.832
					C312.881,383.438,239.381,456.498,238.643,546.898"/>
			</defs>
			<clipPath id="SVGID_5_">
				<use xlink:href="#SVGID_4_"  overflow="visible"/>
			</clipPath>
			
				<radialGradient id="SVGID_6_" cx="158.2324" cy="706.2417" r="2.341" gradientTransform="matrix(59.6978 0 0 -59.6978 -9042.6357 42653.5898)" gradientUnits="userSpaceOnUse">
				<stop  offset="0" style="stop-color:#F9B71A"/>
				<stop  offset="1" style="stop-color:#D78928"/>
			</radialGradient>
			<rect x="238.643" y="383.438" clip-path="url(#SVGID_5_)" fill="url(#SVGID_6_)" width="329.648" height="218.082"/>
		</g>
		<g>
			<g opacity="0.3">
				<g>
					<defs>
						<rect id="SVGID_7_" x="238.624" y="515.992" width="329.669" height="90.063"/>
					</defs>
					<clipPath id="SVGID_8_">
						<use xlink:href="#SVGID_7_"  overflow="visible"/>
					</clipPath>
					<path clip-path="url(#SVGID_8_)" fill="#010101" d="M405.219,606.052l48.025-42.514l65.008,36.814l49.869-44.754
						c0.107-2.43,0.172-4.871,0.172-7.33c0-0.758-0.018-1.512-0.031-2.268l-50.946,45.721l-64.978-36.791l-47.508,42.055
						l-109.028-80.994l-57.082,26.973c-0.056,1.764-0.094,3.531-0.094,5.305c0,0.843,0.018,1.682,0.031,2.52l56.335-26.619
						L405.219,606.052z"/>
				</g>
			</g>
			<g opacity="0.3">
				<g>
					<defs>
						<rect id="SVGID_9_" x="343.556" y="502.461" width="122.155" height="122.157"/>
					</defs>
					<clipPath id="SVGID_10_">
						<use xlink:href="#SVGID_9_"  overflow="visible"/>
					</clipPath>
					<path clip-path="url(#SVGID_10_)" fill="#010101" d="M465.712,563.541c0,33.734-27.347,61.078-61.079,61.078
						c-33.733,0-61.08-27.344-61.08-61.078c0-33.732,27.347-61.078,61.08-61.078C438.366,502.462,465.712,529.808,465.712,563.541"
						/>
				</g>
			</g>
			<path fill="#010101" d="M460.826,563.541c0,31.033-25.159,56.193-56.192,56.193c-31.036,0-56.193-25.16-56.193-56.193
				s25.157-56.192,56.193-56.192C435.667,507.348,460.826,532.507,460.826,563.541"/>
		</g>
	</g>
	<linearGradient id="SVGID_11_" gradientUnits="userSpaceOnUse" x1="350.834" y1="563.5405" x2="459.176" y2="563.5405">
		<stop  offset="0" style="stop-color:#D7D7D7"/>
		<stop  offset="1" style="stop-color:#797778"/>
	</linearGradient>
	<circle fill="url(#SVGID_11_)" cx="404.635" cy="563.541" r="50.574"/>
	<linearGradient id="SVGID_12_" gradientUnits="userSpaceOnUse" x1="403.4429" y1="517.5601" x2="403.4429" y2="608.9845">
		<stop  offset="0" style="stop-color:#D7D7D7"/>
		<stop  offset="1" style="stop-color:#797778"/>
	</linearGradient>
	<circle fill="url(#SVGID_12_)" cx="403.443" cy="563.541" r="36.918"/>
	<g>
		<linearGradient id="SVGID_13_" gradientUnits="userSpaceOnUse" x1="373.0283" y1="368.6914" x2="529.0283" y2="518.1914">
			<stop  offset="0" style="stop-color:#FFFFFF"/>
			<stop  offset="1" style="stop-color:#FFFFFF;stop-opacity:0"/>
		</linearGradient>
		<path fill="url(#SVGID_13_)" d="M546.345,543.316h-43c0-51.694-42.056-93.75-93.75-93.75v-43
			C484.999,406.566,546.345,467.912,546.345,543.316z"/>
	</g>
</g>
<g id="Layer_3">
	<g>
		<g>
			<polygon fill="#5EB8E8" points="90.884,239.386 90.884,304.386 180.884,283.607 180.884,682.386 285.884,719.386 
				285.884,263.386 443.884,229.386 443.884,119.386 			"/>
		</g>
		<g>
			<path d="M291.884,727.862l-117-41.229V291.15l-90,20.779v-76.84l365-124.08v123.223l-158,34V727.862z M186.884,678.139l93,32.771
				V258.54l158-34v-96.777l-341,115.92v53.16l90-20.779V678.139z"/>
		</g>
	</g>
	<g>
		<g>
			<polygon fill="#5EB8E8" points="67.884,228.386 67.884,293.386 157.884,272.607 157.884,671.386 262.884,708.386 
				262.884,252.386 420.884,218.386 420.884,108.386 			"/>
		</g>
		<g>
			<path d="M268.884,716.862l-117-41.229V280.15l-90,20.779v-76.84l365-124.08v123.223l-158,34V716.862z M163.884,667.139l93,32.771
				V247.54l158-34v-96.777l-341,115.92v53.16l90-20.779V667.139z"/>
		</g>
	</g>
	<polygon fill="#5E1F60" points="427.847,6.154 6.884,176.901 6.884,672.386 28.884,681.386 28.884,191.872 424.921,45.619 	"/>
	<polygon fill="#5EB8E8" points="504.941,898.853 925.904,728.106 925.904,232.621 903.904,223.621 903.904,713.135 
		507.867,859.388 	"/>
	<g>
		<g>
			<polygon fill="#5E1F60" points="465.755,167.386 465.755,420.12 577.884,502.991 732.884,493.386 732.884,619.386 
				619.884,655.071 618.203,589.588 465.755,619.386 465.755,749.386 578.198,790.39 755.322,693.386 797.884,618.386 
				797.884,467.446 750.884,414.386 615.884,399.386 615.884,254.386 732.884,294.386 732.884,339.386 792.884,355.386 
				797.884,302.607 745.884,228.386 572.884,138.386 			"/>
		</g>
		<g>
			<path d="M578.696,796.958l-118.941-43.374V614.446l164.263-32.107l1.659,64.61l101.206-31.96v-115.22l-150.81,9.346
				l-116.319-85.969V162.794l113.821-30.812l176.379,91.758l54.11,77.232l-5.877,62.037l-71.305-19.014v-45.32l-105-35.897v131.238
				l131.959,14.662l50.041,56.492v154.8l-44.185,77.859l-1.495,0.819L578.696,796.958z M471.755,745.188L577.7,783.822
				l173.245-94.88l40.938-72.14V469.721l-43.959-49.627l-138.041-15.338V245.994l129,44.103v44.68l48.695,12.985l4.123-43.521
				l-49.89-71.209L572.191,144.79l-100.436,27.188v245.115l107.938,79.773l159.19-9.864v136.781l-124.793,39.409l-1.703-66.354
				l-140.632,27.488V745.188z"/>
		</g>
	</g>
	<g>
		<g>
			<polygon fill="#5E1F60" points="475.755,137.386 475.755,390.12 587.884,472.991 742.884,463.386 742.884,589.386 
				629.884,625.071 628.203,559.588 475.755,589.386 475.755,719.386 588.198,760.39 765.322,663.386 807.884,588.386 
				807.884,437.446 760.884,384.386 625.884,369.386 625.884,224.386 742.884,264.386 742.884,309.386 802.884,325.386 
				807.884,272.607 755.884,198.386 582.884,108.386 			"/>
		</g>
		<g>
			<path d="M588.696,766.958l-118.941-43.374V584.446l164.263-32.107l1.659,64.61l101.206-31.96v-115.22l-150.81,9.346
				l-116.319-85.969V132.794l113.821-30.812l176.379,91.758l54.11,77.232l-5.877,62.037l-71.305-19.014v-45.32l-105-35.897v131.238
				l131.959,14.662l50.041,56.492v154.8l-44.185,77.859l-1.495,0.819L588.696,766.958z M481.755,715.188L587.7,753.822
				l173.245-94.88l40.938-72.14V439.721l-43.959-49.627l-138.041-15.338V215.994l129,44.103v44.68l48.695,12.985l4.123-43.521
				l-49.89-71.209L582.191,114.79l-100.436,27.188v245.115l107.938,79.773l159.19-9.864v136.781l-124.793,39.409l-1.703-66.354
				l-140.632,27.488V715.188z"/>
		</g>
	</g>
	<g opacity="0.3">
		<defs>
			<polygon id="SVGID_14_" opacity="0.3" points="475.755,137.386 475.755,390.12 587.884,472.991 742.884,463.386 742.884,589.386 
				629.884,625.071 628.203,559.588 475.755,589.386 475.755,719.386 588.198,760.39 765.322,663.386 807.884,588.386 
				807.884,437.446 760.884,384.386 625.884,369.386 625.884,224.386 742.884,264.386 742.884,309.386 802.884,325.386 
				807.884,272.607 755.884,198.386 582.884,108.386 			"/>
		</defs>
		<clipPath id="SVGID_15_">
			<use xlink:href="#SVGID_14_"  overflow="visible"/>
		</clipPath>
		<g clip-path="url(#SVGID_15_)">
			<defs>
				<circle id="SVGID_16_" cx="636.96" cy="635.861" r="120.84"/>
			</defs>
			<clipPath id="SVGID_17_">
				<use xlink:href="#SVGID_16_"  overflow="visible"/>
			</clipPath>
			<g clip-path="url(#SVGID_17_)">
				
					<rect x="336.685" y="446.269" transform="matrix(-0.7071 0.7071 -0.7071 -0.7071 1428.7009 313.5149)" fill="#171617" width="625.469" height="12.763"/>
				
					<rect x="336.684" y="476.804" transform="matrix(0.7071 -0.7071 0.7071 0.7071 -151.4534 600.7291)" fill="#171617" width="625.471" height="12.763"/>
				
					<rect x="336.684" y="507.34" transform="matrix(0.7071 -0.7071 0.7071 0.7071 -173.0449 609.6752)" fill="#171617" width="625.472" height="12.763"/>
				
					<rect x="336.684" y="537.874" transform="matrix(0.7071 -0.7071 0.7071 0.7071 -194.6361 618.6171)" fill="#171617" width="625.471" height="12.763"/>
				
					<rect x="336.684" y="568.409" transform="matrix(0.7071 -0.7071 0.7071 0.7071 -216.2277 627.5607)" fill="#171617" width="625.471" height="12.763"/>
				
					<rect x="336.684" y="598.944" transform="matrix(0.7071 -0.7071 0.7071 0.7071 -237.8193 636.5042)" fill="#171617" width="625.471" height="12.763"/>
				
					<rect x="336.684" y="629.478" transform="matrix(0.7071 -0.7071 0.7071 0.7071 -259.4103 645.4474)" fill="#171617" width="625.471" height="12.763"/>
				
					<rect x="336.684" y="660.013" transform="matrix(0.7071 -0.7071 0.7071 0.7071 -281.0018 654.3909)" fill="#171617" width="625.471" height="12.763"/>
				
					<rect x="336.684" y="690.548" transform="matrix(0.7071 -0.7071 0.7071 0.7071 -302.5932 663.3354)" fill="#171617" width="625.471" height="12.763"/>
				
					<rect x="336.684" y="721.084" transform="matrix(0.7071 -0.7071 0.7071 0.7071 -324.1851 672.278)" fill="#171617" width="625.471" height="12.763"/>
				
					<rect x="336.684" y="751.618" transform="matrix(0.7071 -0.7071 0.7071 0.7071 -345.7763 681.2203)" fill="#171617" width="625.47" height="12.763"/>
				
					<rect x="336.684" y="782.153" transform="matrix(0.7071 -0.7071 0.7071 0.7071 -367.3676 690.1647)" fill="#171617" width="625.471" height="12.763"/>
			</g>
		</g>
		<g clip-path="url(#SVGID_15_)">
			<defs>
				<circle id="SVGID_18_" cx="591.398" cy="224.895" r="170.513"/>
			</defs>
			<clipPath id="SVGID_19_">
				<use xlink:href="#SVGID_18_"  overflow="visible"/>
			</clipPath>
			<g clip-path="url(#SVGID_19_)">
				
					<rect x="167.69" y="-42.631" transform="matrix(-0.7071 0.7071 -0.7071 -0.7071 1015.8152 -488.0164)" fill="#171617" width="882.578" height="18.01"/>
				
					<rect x="167.688" y="0.455" transform="matrix(0.7071 -0.7071 0.7071 0.7071 171.6758 433.3829)" fill="#171617" width="882.58" height="18.01"/>
				
					<rect x="167.688" y="43.543" transform="matrix(0.7071 -0.7071 0.7071 0.7071 141.2095 446.0045)" fill="#171617" width="882.582" height="18.009"/>
				
					<rect x="167.689" y="86.629" transform="matrix(0.7071 -0.7071 0.7071 0.7071 110.7424 458.6235)" fill="#171617" width="882.581" height="18.01"/>
				
					<rect x="167.689" y="129.716" transform="matrix(0.7071 -0.7071 0.7071 0.7071 80.2755 471.2433)" fill="#171617" width="882.581" height="18.01"/>
				
					<rect x="167.689" y="172.803" transform="matrix(0.7071 -0.7071 0.7071 0.7071 49.8079 483.8631)" fill="#171617" width="882.58" height="18.011"/>
				
					<rect x="167.689" y="215.889" transform="matrix(0.7071 -0.7071 0.7071 0.7071 19.3418 496.4828)" fill="#171617" width="882.581" height="18.011"/>
				
					<rect x="167.689" y="258.976" transform="matrix(0.7071 -0.7071 0.7071 0.7071 -11.1255 509.1025)" fill="#171617" width="882.58" height="18.011"/>
				
					<rect x="167.688" y="302.062" transform="matrix(0.7071 -0.7071 0.7071 0.7071 -41.592 521.7227)" fill="#171617" width="882.581" height="18.011"/>
				
					<rect x="167.689" y="345.15" transform="matrix(0.7071 -0.7071 0.7071 0.7071 -72.0597 534.3425)" fill="#171617" width="882.581" height="18.01"/>
				
					<rect x="167.689" y="388.236" transform="matrix(0.7071 -0.7071 0.7071 0.7071 -102.5266 546.9611)" fill="#171617" width="882.579" height="18.011"/>
				
					<rect x="167.689" y="431.323" transform="matrix(0.7071 -0.7071 0.7071 0.7071 -132.993 559.582)" fill="#171617" width="882.581" height="18.01"/>
			</g>
		</g>
	</g>
	<g opacity="0.2">
		<defs>
			<polygon id="SVGID_20_" opacity="0.2" points="67.884,228.386 67.884,293.386 157.884,272.607 157.884,671.386 262.884,708.386 
				262.884,252.386 420.884,218.386 420.884,108.386 			"/>
		</defs>
		<clipPath id="SVGID_21_">
			<use xlink:href="#SVGID_20_"  overflow="visible"/>
		</clipPath>
		<g clip-path="url(#SVGID_21_)">
			<defs>
				<circle id="SVGID_22_" cx="215.384" cy="620.039" r="120.84"/>
			</defs>
			<clipPath id="SVGID_23_">
				<use xlink:href="#SVGID_22_"  overflow="visible"/>
			</clipPath>
			<g clip-path="url(#SVGID_23_)">
				
					<rect x="-84.891" y="430.447" transform="matrix(-0.7071 0.7071 -0.7071 -0.7071 697.8372 584.6038)" fill="#171617" width="625.469" height="12.763"/>
				
					<rect x="-84.892" y="460.981" transform="matrix(0.7071 -0.7071 0.7071 0.7071 -263.7416 297.996)" fill="#171617" width="625.471" height="12.763"/>
				
					<rect x="-84.893" y="491.517" transform="matrix(0.7071 -0.7071 0.7071 0.7071 -285.334 306.9412)" fill="#171617" width="625.472" height="12.763"/>
				
					<rect x="-84.892" y="522.051" transform="matrix(0.7071 -0.7071 0.7071 0.7071 -306.9247 315.8837)" fill="#171617" width="625.471" height="12.763"/>
				
					<rect x="-84.892" y="552.587" transform="matrix(0.7071 -0.7071 0.7071 0.7071 -328.5164 324.8272)" fill="#171617" width="625.471" height="12.763"/>
				
					<rect x="-84.892" y="583.122" transform="matrix(0.7071 -0.7071 0.7071 0.7071 -350.108 333.7708)" fill="#171617" width="625.471" height="12.763"/>
				
					<rect x="-84.892" y="613.656" transform="matrix(0.7071 -0.7071 0.7071 0.7071 -371.6989 342.714)" fill="#171617" width="625.471" height="12.763"/>
				
					<rect x="-84.892" y="644.191" transform="matrix(0.7071 -0.7071 0.7071 0.7071 -393.2905 351.6575)" fill="#171617" width="625.471" height="12.763"/>
				
					<rect x="-84.892" y="674.726" transform="matrix(0.7071 -0.7071 0.7071 0.7071 -414.8821 360.6016)" fill="#171617" width="625.471" height="12.763"/>
				
					<rect x="-84.892" y="705.261" transform="matrix(0.7071 -0.7071 0.7071 0.7071 -436.4737 369.5446)" fill="#171617" width="625.471" height="12.763"/>
				
					<rect x="-84.892" y="735.796" transform="matrix(0.7071 -0.7071 0.7071 0.7071 -458.0646 378.4872)" fill="#171617" width="625.47" height="12.763"/>
				
					<rect x="-84.892" y="766.331" transform="matrix(0.7071 -0.7071 0.7071 0.7071 -479.6562 387.4313)" fill="#171617" width="625.471" height="12.763"/>
			</g>
		</g>
	</g>
	<g opacity="0.2">
		<defs>
			<polygon id="SVGID_24_" opacity="0.2" points="67.884,228.386 67.884,293.386 157.884,272.607 157.884,671.386 262.884,708.386 
				262.884,252.386 420.884,218.386 420.884,108.386 			"/>
		</defs>
		<clipPath id="SVGID_25_">
			<use xlink:href="#SVGID_24_"  overflow="visible"/>
		</clipPath>
		<g clip-path="url(#SVGID_25_)">
			<defs>
				<circle id="SVGID_26_" cx="267.384" cy="275.794" r="120.84"/>
			</defs>
			<clipPath id="SVGID_27_">
				<use xlink:href="#SVGID_26_"  overflow="visible"/>
			</clipPath>
			<g clip-path="url(#SVGID_27_)">
				
					<rect x="-32.891" y="86.203" transform="matrix(-0.7071 0.7071 -0.7071 -0.7071 543.1896 -39.8271)" fill="#171617" width="625.469" height="12.763"/>
				
					<rect x="-32.892" y="116.737" transform="matrix(0.7071 -0.7071 0.7071 0.7071 -5.0943 233.9391)" fill="#171617" width="625.471" height="12.763"/>
				
					<rect x="-32.892" y="147.273" transform="matrix(0.7071 -0.7071 0.7071 0.7071 -26.6861 242.8837)" fill="#171617" width="625.471" height="12.763"/>
				
					<rect x="-32.892" y="177.807" transform="matrix(0.7071 -0.7071 0.7071 0.7071 -48.2771 251.8266)" fill="#171617" width="625.471" height="12.763"/>
				
					<rect x="-32.892" y="208.342" transform="matrix(0.7071 -0.7071 0.7071 0.7071 -69.8687 260.7701)" fill="#171617" width="625.471" height="12.763"/>
				
					<rect x="-32.892" y="238.878" transform="matrix(0.7071 -0.7071 0.7071 0.7071 -91.4603 269.7136)" fill="#171617" width="625.471" height="12.763"/>
				
					<rect x="-32.892" y="269.412" transform="matrix(0.7071 -0.7071 0.7071 0.7071 -113.0512 278.6569)" fill="#171617" width="625.471" height="12.763"/>
				
					<rect x="-32.892" y="299.947" transform="matrix(0.7071 -0.7071 0.7071 0.7071 -134.6428 287.6004)" fill="#171617" width="625.471" height="12.763"/>
				
					<rect x="-32.892" y="330.482" transform="matrix(0.7071 -0.7071 0.7071 0.7071 -156.2341 296.5443)" fill="#171617" width="625.471" height="12.763"/>
				
					<rect x="-32.892" y="361.017" transform="matrix(0.7071 -0.7071 0.7071 0.7071 -177.826 305.4874)" fill="#171617" width="625.471" height="12.763"/>
				
					<rect x="-32.892" y="391.552" transform="matrix(0.7071 -0.7071 0.7071 0.7071 -199.4171 314.4305)" fill="#171617" width="625.47" height="12.763"/>
				
					<rect x="-32.892" y="422.087" transform="matrix(0.7071 -0.7071 0.7071 0.7071 -221.0085 323.3742)" fill="#171617" width="625.471" height="12.763"/>
			</g>
		</g>
	</g>
</g>
</svg>
